<svg width="500" height="500" viewBox="0 0 500 500" fill="none" xmlns="http://www.w3.org/2000/svg">
<g clip-path="url(#clip0_14_2841)">
<rect x="10" y="10" width="480" height="480" rx="60" stroke="#81D5FF" stroke-width="20"/>
<rect x="39.5" y="39.5" width="421" height="421" rx="31.5" stroke="#81D5FF" stroke-width="9"/>
<path d="M149.7 421V80.01L293.75 77.86C320.41 77.2867 340.477 83.3067 353.95 95.92C367.423 108.247 374.16 126.593 374.16 150.96V220.62C374.16 243.553 367.423 261.757 353.95 275.23C340.477 288.417 320.41 295.01 293.75 295.01H203.88V421H149.7ZM311.81 125.16H203.88V248.14H311.81C316.397 248.14 318.69 245.847 318.69 241.26V132.04C318.69 127.453 316.397 125.16 311.81 125.16Z" fill="#81D5FF"/>
</g>
<defs>
<clipPath id="clip0_14_2841">
<rect width="500" height="500" fill="white"/>
</clipPath>
</defs>
</svg>
